<?xml version="1.0" standalone="no"?>
<!DOCTYPE svg PUBLIC "-//W3C//DTD SVG 20010904//EN"
 "http://www.w3.org/TR/2001/REC-SVG-20010904/DTD/svg10.dtd">
<svg version="1.0" xmlns="http://www.w3.org/2000/svg"
 width="800.000000pt" height="800.000000pt" viewBox="0 0 800.000000 800.000000"
 preserveAspectRatio="xMidYMid meet">
<metadata>
Created by potrace 1.14, written by Peter Selinger 2001-2017
</metadata>
<g transform="translate(0.000000,800.000000) scale(0.100000,-0.100000)"
fill="#000000" stroke="none">
<path d="M5134 6913 c-15 -16 -22 -20 -14 -10 7 9 10 20 6 24 -3 3 -6 1 -6 -6
0 -7 -5 -9 -10 -6 -6 4 -10 3 -9 -2 1 -4 1 -17 0 -28 -1 -17 -3 -18 -11 -5 -8
12 -10 10 -11 -10 0 -14 -3 -19 -6 -12 -2 6 -10 12 -15 12 -6 0 -8 -3 -5 -6 9
-10 -12 -46 -24 -39 -5 4 -9 1 -9 -4 0 -6 -8 -11 -17 -11 -15 0 -16 -2 -3 -10
13 -8 12 -10 -2 -10 -10 0 -18 -5 -18 -11 0 -5 -5 -7 -10 -4 -13 8 -76 -30
-84 -50 -3 -8 -9 -15 -13 -14 -21 4 -33 -2 -27 -13 5 -8 2 -9 -9 -5 -10 4 -17
1 -17 -6 0 -8 -4 -6 -10 3 -5 8 -10 10 -10 4 0 -5 -7 -19 -16 -30 -8 -10 -13
-14 -10 -7 5 8 0 8 -19 0 -14 -7 -23 -17 -21 -24 3 -7 -3 -10 -15 -8 -10 2
-19 -1 -19 -6 0 -6 -4 -8 -9 -4 -5 3 -17 -2 -25 -11 -9 -9 -23 -13 -31 -10 -8
3 -14 0 -12 -7 1 -7 -5 -12 -13 -12 -8 0 -26 -11 -39 -25 -13 -14 -20 -20 -17
-13 3 6 2 15 -4 18 -6 4 -9 3 -8 -2 2 -5 -9 -21 -24 -36 -16 -15 -28 -24 -28
-20 0 4 -7 -3 -16 -15 -9 -13 -27 -28 -41 -33 -16 -6 -23 -15 -19 -24 3 -8 0
-17 -6 -21 -6 -4 -8 -3 -5 3 3 5 0 10 -8 10 -10 0 -11 -5 -4 -18 7 -14 6 -17
-5 -13 -9 3 -17 -3 -21 -15 -3 -12 -11 -18 -17 -15 -7 5 -8 2 -3 -6 6 -10 11
-9 22 5 7 11 13 14 13 9 0 -5 -13 -21 -28 -34 -26 -23 -38 -27 -59 -20 -5 1
-12 2 -17 1 -4 -1 -14 3 -21 9 -9 7 -15 8 -19 1 -5 -7 -15 -7 -32 -1 -17 7
-23 7 -19 0 4 -7 -2 -7 -19 0 -17 6 -27 6 -32 -1 -4 -7 -10 -6 -19 1 -8 7 -15
7 -19 1 -7 -10 -24 -10 -43 2 -6 4 -15 3 -18 -3 -5 -8 -11 -7 -21 1 -11 9 -14
9 -14 -1 0 -10 -3 -10 -14 -1 -10 9 -16 9 -21 1 -4 -6 -12 -7 -18 -3 -15 10
-38 10 -54 0 -6 -4 -14 -3 -18 3 -4 6 -12 7 -18 3 -18 -11 -36 -12 -43 -2 -3
5 -13 5 -25 -1 -10 -6 -19 -7 -19 -2 0 5 -7 9 -15 9 -8 0 -15 -4 -15 -9 0 -5
-5 -6 -11 -3 -15 10 -79 12 -79 3 0 -5 -11 -8 -24 -8 -14 0 -28 -5 -31 -10 -5
-8 -11 -8 -20 0 -9 8 -15 8 -20 0 -3 -6 -12 -7 -18 -3 -7 4 -16 8 -21 8 -5 0
-11 7 -13 15 -4 12 -3 12 5 1 5 -7 12 -9 15 -4 4 6 -5 16 -19 23 -18 10 -21
16 -12 22 9 5 6 8 -8 8 -17 0 -21 5 -19 24 3 20 -1 24 -17 21 -17 -4 -18 -2
-7 11 10 12 10 15 -1 12 -8 -2 -14 5 -15 17 0 15 -6 19 -25 17 -20 -2 -22 -1
-10 8 12 9 10 10 -10 8 -16 -2 -25 2 -26 12 -2 34 -5 38 -22 33 -11 -2 -25 4
-33 14 -13 17 -13 17 6 3 19 -14 19 -14 6 3 -10 12 -17 15 -24 8 -8 -8 -16 -2
-29 17 -11 16 -18 21 -18 12 -1 -12 -3 -11 -11 3 -5 9 -17 17 -26 17 -9 0 -22
8 -30 18 -8 9 -12 11 -8 5 3 -7 1 -13 -4 -13 -6 0 -11 5 -11 11 0 5 -6 7 -12
3 -10 -6 -10 -4 0 8 11 14 10 16 -7 11 -13 -3 -21 -1 -21 7 0 9 -4 9 -17 -1
-9 -8 -14 -9 -10 -3 4 7 -2 14 -13 17 -14 4 -18 10 -14 24 6 16 5 16 -9 -2
-15 -19 -16 -19 -23 -2 -3 10 -13 16 -20 13 -8 -3 -14 1 -14 10 0 8 -4 12 -10
9 -5 -3 -10 -2 -10 4 0 6 -7 8 -15 5 -8 -4 -17 1 -21 10 -3 9 -11 13 -17 9 -5
-3 -15 0 -21 8 -6 8 -23 23 -36 34 l-25 20 20 -26 c17 -21 16 -21 -7 3 -29 29
-45 37 -32 16 5 -9 3 -9 -9 1 -9 7 -15 17 -12 21 3 5 0 12 -6 16 -8 4 -9 3 -5
-4 5 -8 -1 -12 -16 -11 -13 0 -17 3 -10 6 6 2 12 9 12 14 0 4 -7 5 -17 2 -12
-5 -14 -3 -8 7 6 10 3 12 -14 7 -17 -4 -20 -3 -12 7 15 17 1 29 -16 14 -11 -9
-17 -9 -24 3 -7 12 -9 12 -10 -1 -1 -8 -1 -19 0 -24 1 -5 -6 -6 -15 -2 -15 6
-15 4 -3 -10 13 -16 12 -16 -8 -5 -19 9 -22 9 -17 -3 7 -18 -27 -53 -49 -50
-14 2 -15 -1 -6 -18 10 -18 9 -19 -13 -7 -20 11 -22 11 -10 -3 10 -13 10 -18
1 -24 -8 -4 -9 -3 -5 4 4 8 2 10 -7 6 -9 -3 -13 -14 -11 -27 2 -12 2 -16 -2
-9 -8 18 -27 15 -20 -4 4 -11 -1 -18 -14 -21 -12 -3 -19 -12 -18 -22 2 -10 -3
-15 -14 -15 -10 1 -16 -3 -15 -10 1 -6 -4 -10 -12 -8 -12 3 -12 0 -1 -12 8
-11 9 -16 1 -16 -6 0 -11 -6 -11 -14 0 -7 -10 -16 -22 -19 -18 -5 -19 -8 -8
-22 11 -13 10 -14 -5 -9 -13 5 -16 4 -11 -4 4 -7 2 -12 -4 -12 -6 0 -8 -4 -5
-10 3 -5 1 -10 -5 -10 -7 0 -10 -7 -7 -14 4 -9 -2 -17 -14 -21 -17 -6 -18 -9
-7 -23 9 -11 9 -14 1 -9 -19 11 -46 -46 -30 -63 10 -10 8 -12 -5 -7 -12 4 -18
1 -18 -9 0 -9 -5 -12 -12 -8 -9 5 -9 3 1 -9 11 -14 11 -18 -2 -23 -9 -3 -13
-12 -10 -20 3 -8 0 -14 -7 -14 -10 0 -10 -3 -1 -14 10 -11 8 -16 -7 -21 -14
-4 -18 -12 -14 -27 3 -14 1 -19 -6 -14 -8 5 -10 2 -6 -9 4 -8 1 -22 -6 -30 -6
-8 -9 -18 -6 -23 3 -5 -1 -21 -9 -36 -8 -16 -10 -24 -3 -20 8 5 9 1 3 -12 -5
-10 -9 -29 -9 -41 -1 -13 -5 -23 -10 -23 -5 0 -4 -6 2 -13 7 -8 7 -18 2 -27
-5 -9 -5 -19 2 -27 7 -9 7 -13 -1 -13 -8 0 -9 -5 -1 -19 7 -14 7 -22 0 -26 -8
-5 -7 -11 1 -21 9 -11 9 -14 -1 -14 -9 0 -9 -4 -2 -13 7 -8 7 -18 2 -27 -5 -9
-5 -19 2 -27 7 -9 7 -13 0 -13 -11 0 -11 -18 0 -35 4 -6 3 -17 -1 -24 -10 -16
-2 -53 9 -46 5 3 6 -4 3 -15 -3 -11 2 -31 11 -44 11 -18 13 -27 4 -32 -7 -5
-8 -3 -3 6 6 9 4 11 -5 5 -10 -6 -10 -10 3 -20 9 -6 17 -22 19 -36 2 -13 7
-30 11 -36 5 -8 3 -13 -5 -13 -8 -1 -6 -6 6 -15 16 -12 17 -15 4 -20 -9 -4
-14 -14 -11 -24 2 -9 -4 -24 -14 -32 -16 -13 -17 -13 -4 4 7 9 9 17 3 17 -15
0 -22 -26 -10 -38 6 -6 6 -12 -3 -17 -8 -5 -10 -4 -5 3 4 7 3 12 -2 12 -11 0
-22 -24 -22 -49 0 -9 -9 -27 -21 -39 -11 -12 -17 -27 -14 -32 3 -6 1 -10 -5
-10 -6 0 -8 -5 -4 -12 5 -8 2 -9 -11 -4 -14 5 -16 4 -6 -8 9 -11 8 -15 -4 -20
-8 -3 -15 -17 -15 -31 0 -14 -5 -25 -11 -25 -7 0 -9 -10 -7 -24 3 -16 1 -23
-7 -20 -7 3 -15 -2 -19 -11 -3 -9 -2 -13 4 -10 6 3 10 1 10 -4 0 -6 -4 -11
-10 -11 -5 0 -12 -16 -16 -35 -3 -19 -10 -37 -14 -40 -4 -2 -6 -18 -4 -35 3
-22 0 -29 -8 -24 -8 5 -9 2 -5 -9 3 -10 2 -17 -4 -17 -5 0 -9 -6 -8 -12 3 -24
-1 -39 -9 -34 -4 2 -6 -12 -5 -32 1 -22 -5 -44 -14 -54 -11 -12 -12 -18 -4
-18 7 0 9 -5 6 -10 -4 -6 -12 -7 -18 -3 -7 4 -6 0 2 -10 7 -9 9 -17 4 -17 -5
0 -10 -21 -12 -47 -1 -26 -4 -50 -7 -54 -2 -4 2 -10 8 -12 10 -4 10 -6 1 -6
-7 -1 -13 -12 -13 -26 0 -14 -5 -25 -11 -25 -8 0 -8 -5 1 -15 7 -8 8 -15 3
-15 -6 0 -10 -10 -11 -22 0 -37 -13 -68 -26 -61 -7 4 -7 2 1 -7 9 -10 7 -17
-7 -32 -19 -20 -17 -53 3 -41 6 3 7 1 3 -5 -4 -7 -14 -12 -22 -12 -8 0 -12 -4
-9 -10 3 -5 0 -10 -7 -10 -9 0 -9 -3 2 -10 9 -6 11 -10 3 -10 -7 0 -10 -7 -6
-17 5 -12 3 -14 -7 -8 -10 6 -12 4 -7 -8 4 -12 1 -17 -11 -17 -15 0 -15 -2 -2
-10 13 -8 13 -10 -2 -10 -9 0 -20 -5 -24 -12 -5 -7 -3 -8 5 -3 10 5 9 2 0 -13
-7 -12 -17 -18 -23 -15 -5 4 -7 -1 -3 -10 4 -12 1 -17 -11 -17 -15 0 -15 -2
-2 -11 12 -9 10 -10 -8 -6 -18 4 -21 3 -12 -8 8 -10 8 -15 -1 -21 -8 -5 -9 -3
-4 7 8 12 6 12 -8 0 -9 -7 -17 -20 -17 -28 0 -13 -2 -13 -17 -2 -11 10 -14 10
-9 2 4 -7 3 -13 -3 -13 -5 0 -8 -9 -6 -20 3 -17 1 -19 -15 -10 -16 9 -18 8
-13 -7 5 -13 3 -15 -11 -10 -10 4 -15 3 -11 -3 3 -6 2 -10 -4 -10 -6 0 -7 -7
-4 -17 4 -11 3 -14 -5 -9 -7 4 -12 2 -12 -4 0 -6 -4 -9 -9 -6 -11 7 -36 -22
-27 -31 3 -3 6 -1 6 5 0 7 5 12 11 12 8 0 8 -5 -1 -15 -10 -12 -16 -13 -28 -3
-13 10 -14 10 -8 0 7 -12 -38 -38 -58 -33 -5 1 -4 -5 4 -13 10 -13 10 -16 -1
-17 -8 -1 -18 -1 -23 0 -5 1 -4 -4 3 -12 9 -12 8 -16 -5 -21 -13 -5 -14 -9 -4
-21 6 -8 17 -13 23 -12 7 1 11 -9 9 -26 -2 -15 0 -27 5 -26 4 1 15 1 23 -1 11
-1 9 -4 -5 -10 -15 -6 -16 -9 -4 -9 9 -1 21 -11 28 -23 9 -18 10 -19 6 -3 -7
22 -1 17 33 -29 12 -16 22 -26 22 -22 0 4 7 1 15 -6 36 -33 46 -39 54 -33 5 3
13 0 17 -6 4 -8 3 -9 -4 -5 -7 4 -12 2 -12 -3 0 -6 12 -11 26 -11 17 0 23 -4
18 -12 -6 -10 -5 -10 7 -1 11 9 18 8 31 -1 10 -7 15 -16 11 -19 -6 -6 0 -8 46
-11 8 -1 16 -7 19 -14 2 -6 8 -12 13 -12 6 0 7 6 3 13 -5 8 -2 8 9 -2 9 -7 17
-20 17 -28 0 -8 4 -12 9 -9 4 3 5 -12 1 -34 -4 -22 -4 -37 0 -35 5 3 11 -2 14
-11 9 -23 8 -26 -6 -17 -8 4 -6 -3 3 -17 10 -16 13 -33 9 -45 -8 -21 3 -49 27
-74 12 -11 12 -15 1 -22 -9 -6 -9 -9 -1 -9 6 0 10 -9 8 -20 -2 -11 -1 -19 3
-19 18 3 26 -2 14 -10 -10 -6 -9 -11 4 -22 15 -12 17 -12 9 0 -5 9 -4 12 2 8
6 -4 8 -19 5 -33 -3 -18 -1 -25 6 -20 6 3 13 2 16 -3 4 -5 2 -12 -4 -16 -6 -4
-8 -11 -4 -16 3 -5 9 -7 14 -4 5 3 11 1 15 -5 3 -5 0 -10 -7 -10 -7 0 0 -9 15
-19 19 -12 25 -21 17 -26 -7 -5 -3 -17 14 -40 14 -18 23 -35 20 -37 -2 -3 7
-4 21 -3 14 2 23 -1 19 -6 -3 -5 -10 -7 -15 -4 -5 4 -9 1 -9 -4 0 -6 5 -11 11
-11 20 0 39 -26 27 -38 -8 -8 -5 -9 11 -5 17 4 20 2 14 -12 -4 -13 -3 -16 5
-11 7 4 12 2 12 -4 0 -6 5 -8 12 -4 8 5 9 2 4 -12 -4 -10 -4 -15 0 -11 12 11
33 -13 27 -31 -5 -14 -3 -15 7 -5 11 10 17 9 32 -4 10 -9 18 -25 18 -35 0 -11
9 -22 20 -25 11 -3 20 -9 20 -14 0 -5 7 -9 16 -9 8 0 12 -4 9 -10 -3 -5 -1
-10 5 -10 6 0 8 -5 5 -10 -3 -5 1 -10 10 -10 9 0 13 -5 10 -10 -4 -6 -3 -9 2
-8 4 1 18 -3 29 -10 12 -6 25 -8 30 -4 5 4 2 -2 -6 -12 -14 -17 -13 -18 5 -13
21 7 47 -4 47 -19 0 -5 4 -16 9 -24 7 -11 8 -8 4 10 -5 21 -4 22 5 7 6 -9 15
-15 20 -12 5 3 12 0 16 -6 5 -8 3 -9 -7 -4 -12 8 -12 6 0 -8 14 -18 36 -24 26
-7 -3 6 1 7 9 4 9 -3 13 -11 9 -17 -4 -6 0 -8 10 -4 11 4 14 2 11 -7 -3 -7 2
-16 11 -20 11 -4 14 -2 9 7 -5 8 -2 8 9 -2 9 -7 14 -18 10 -25 -4 -6 1 -5 10
3 15 12 17 11 17 -5 0 -16 2 -17 10 -4 8 12 10 12 10 1 0 -10 3 -11 14 -2 17
14 27 59 15 67 -5 3 -9 18 -9 33 0 15 -5 32 -12 39 -8 8 -8 12 -1 12 6 0 10 7
9 16 0 9 7 18 16 19 11 2 15 -2 11 -11 -4 -10 0 -12 13 -7 12 4 15 3 10 -5 -4
-7 -2 -12 4 -12 6 0 8 -5 4 -12 -5 -8 -2 -9 12 -4 10 4 15 4 11 0 -9 -9 22
-44 39 -44 8 0 11 -6 7 -17 -4 -11 -3 -14 5 -9 8 4 12 0 12 -11 0 -15 2 -16
10 -3 8 13 10 12 10 -3 0 -10 5 -15 10 -12 6 4 10 3 9 -2 -4 -23 2 -32 18 -26
11 4 14 3 9 -5 -4 -7 -2 -12 4 -12 6 0 8 -5 4 -12 -5 -8 -2 -9 11 -4 14 5 15
4 7 -7 -8 -10 -6 -13 9 -14 12 -1 17 3 13 9 -4 7 -2 8 5 4 6 -4 9 -11 6 -15
-6 -11 40 -53 48 -44 4 3 7 1 7 -6 0 -7 5 -9 12 -5 8 5 9 2 5 -9 -4 -11 -1
-17 6 -17 7 0 22 -7 33 -16 10 -8 13 -13 7 -9 -7 3 -13 1 -13 -4 0 -6 8 -11
19 -11 10 0 24 -7 31 -15 7 -8 16 -13 20 -10 5 3 6 -4 3 -15 -3 -12 0 -20 6
-20 7 0 10 4 6 9 -3 5 -1 13 5 16 6 4 10 3 9 -2 -3 -17 14 -53 22 -47 5 3 9
-3 9 -13 0 -15 2 -16 10 -3 9 13 10 13 11 0 1 -8 1 -19 0 -23 -1 -5 3 -6 9 -2
9 6 15 -8 11 -29 -1 -5 4 -4 13 3 12 10 15 8 21 -8 3 -11 12 -20 18 -18 7 1
11 -6 9 -17 -2 -11 1 -15 7 -11 6 3 11 1 11 -5 0 -6 5 -8 12 -4 8 5 9 2 5 -11
-6 -14 -3 -16 13 -12 18 4 19 3 9 -9 -6 -8 -9 -17 -5 -21 3 -3 6 -1 6 5 0 21
19 13 34 -15 8 -16 16 -23 16 -18 0 6 7 -5 15 -23 8 -18 19 -31 24 -27 6 3 8
-4 6 -16 -4 -18 -2 -19 12 -7 10 7 14 8 10 1 -9 -14 2 -45 14 -37 5 3 9 0 9
-6 0 -6 5 -8 12 -4 8 5 9 2 5 -10 -5 -14 -3 -17 8 -13 8 4 17 1 21 -5 4 -7 3
-8 -4 -4 -7 4 -12 2 -12 -3 0 -6 5 -11 11 -11 5 0 7 -5 3 -12 -5 -8 -2 -9 10
-5 11 4 15 3 11 -4 -4 -5 4 -20 18 -32 14 -12 28 -32 32 -45 4 -13 11 -19 17
-16 7 5 9 1 5 -9 -3 -10 -2 -17 2 -17 5 0 12 6 14 13 3 6 6 2 6 -11 1 -16 -3
-21 -11 -16 -9 5 -9 2 1 -9 15 -19 26 -23 15 -5 -5 7 -3 8 5 4 7 -5 10 -14 7
-22 -3 -9 0 -11 12 -7 15 6 16 5 2 -12 -8 -10 -10 -16 -4 -12 14 8 42 -25 36
-42 -3 -8 0 -11 6 -7 6 3 13 -2 17 -13 3 -11 12 -22 20 -25 8 -3 15 -14 15
-25 0 -11 4 -23 10 -26 6 -4 7 1 4 12 -5 14 -4 15 4 4 6 -8 8 -21 4 -29 -4
-11 -1 -14 11 -9 11 4 14 2 10 -9 -3 -8 4 -23 16 -33 11 -10 21 -23 21 -30 0
-6 5 -11 10 -11 6 0 10 -6 10 -14 0 -8 7 -16 15 -20 8 -3 15 -9 14 -13 -3 -20
2 -34 11 -28 6 4 7 -1 3 -11 -4 -12 -3 -15 5 -10 7 4 12 1 12 -10 0 -9 8 -23
18 -31 9 -8 11 -11 3 -7 -9 4 -12 2 -9 -7 3 -8 11 -13 17 -12 6 2 11 -8 11
-22 0 -14 4 -25 10 -25 5 0 6 -8 3 -17 -6 -16 -5 -17 13 -3 10 8 16 10 11 5
-4 -4 1 -18 10 -29 15 -17 15 -19 1 -8 -11 9 -18 10 -23 2 -4 -6 -3 -9 2 -8 4
1 23 -6 40 -15 28 -15 32 -15 26 -2 -3 9 2 21 12 29 14 10 15 15 5 21 -9 6
-11 4 -5 -5 5 -9 4 -11 -3 -6 -8 5 -6 17 8 40 10 19 17 45 16 60 -2 14 0 23 4
21 5 -3 10 2 14 10 3 8 1 15 -4 15 -6 0 -1 9 11 21 12 12 18 27 14 39 -4 12 1
22 12 29 14 8 15 11 3 11 -12 0 -11 3 3 11 9 5 17 15 17 22 0 7 -4 6 -10 -3
-6 -9 -10 -10 -10 -3 0 6 5 15 10 18 6 4 8 11 5 16 -3 5 1 6 9 3 9 -3 17 2 21
15 3 12 12 19 18 15 7 -3 5 1 -5 8 -15 13 -13 15 14 27 25 11 28 15 15 23 -15
8 -15 10 1 28 9 11 23 20 30 20 12 0 12 3 2 16 -11 12 -11 15 1 12 8 -2 13 3
11 11 -2 9 3 11 14 7 13 -5 14 -3 6 6 -13 16 18 58 42 58 10 0 13 6 10 15 -4
10 0 15 11 15 15 0 15 2 5 16 -8 8 -9 14 -4 13 22 -4 35 2 28 13 -5 8 -2 9 11
4 16 -6 16 -4 4 11 -9 11 -10 14 -1 9 7 -4 12 -2 12 4 0 6 5 8 13 4 8 -6 8 -3
-1 9 -12 14 -11 16 7 12 18 -3 20 -1 11 16 -6 10 -7 19 -3 18 20 -3 34 2 28
11 -3 5 1 10 10 10 9 0 13 5 10 10 -3 6 -1 10 5 10 6 0 8 5 4 12 -5 7 -3 8 5
4 7 -5 10 -15 7 -23 -4 -8 -1 -11 5 -8 6 4 8 13 5 21 -3 8 -1 14 5 14 6 0 7 5
4 10 -3 6 -1 10 5 10 6 0 8 5 4 13 -5 8 -2 8 9 -2 15 -12 17 -11 17 7 0 12 5
24 12 28 8 5 9 2 4 -11 -5 -15 -4 -16 8 -5 9 6 14 17 13 23 -1 7 6 11 15 11
14 -1 16 2 7 18 -7 13 -7 18 -1 14 6 -3 13 0 15 6 4 10 6 10 6 1 1 -7 5 -13
11 -13 5 0 6 7 3 17 -4 11 -3 14 5 9 7 -4 12 -2 12 4 0 6 5 8 10 5 6 -3 10 -1
10 4 0 6 8 11 18 12 10 0 12 3 5 6 -22 8 -14 20 12 18 21 -3 23 0 15 14 -7 14
-5 17 13 17 14 -1 21 4 19 13 -3 12 -1 12 14 0 10 -8 15 -9 11 -3 -3 6 7 18
24 28 16 9 29 24 29 31 0 8 11 17 25 21 14 3 25 10 25 15 0 5 7 9 16 9 14 0
15 2 3 17 -8 9 -9 14 -3 10 7 -4 17 0 24 8 6 7 19 11 27 8 13 -5 15 -2 10 12
-6 15 -5 16 8 5 13 -11 16 -11 13 1 -2 8 2 13 9 12 6 -1 17 5 24 13 10 13 10
17 -2 26 -11 7 -9 9 8 5 13 -3 24 1 27 10 3 8 2 12 -2 9 -5 -3 -9 1 -9 9 0 13
3 12 18 -1 17 -15 18 -15 14 6 -4 18 -2 20 11 9 12 -10 15 -10 12 2 -2 9 5 14
18 13 16 0 20 4 16 15 -4 10 -1 13 11 8 15 -5 16 -3 7 13 -9 16 -7 18 10 15
11 -2 20 1 20 6 0 6 6 7 13 3 9 -6 9 -4 -1 8 -10 13 -9 16 8 21 11 3 20 9 19
14 -4 20 2 24 18 12 10 -8 14 -9 10 -2 -4 7 0 17 10 23 16 11 16 11 -2 6 -19
-6 -19 -5 -3 7 10 8 14 18 10 22 -4 4 3 2 15 -4 20 -10 22 -9 16 6 -5 13 -3
15 11 10 9 -4 15 -3 12 1 -4 8 32 45 44 47 3 0 4 5 4 11 -1 6 5 11 12 11 7 0
10 -5 7 -11 -4 -6 0 -5 9 2 14 11 18 10 26 -5 7 -12 7 -25 1 -36 -7 -11 -6
-17 1 -17 7 0 8 -6 1 -18 -7 -14 -5 -23 10 -35 16 -15 19 -15 19 -2 0 13 4 14
20 5 17 -9 20 -8 20 7 0 15 2 16 10 3 7 -11 10 -11 10 -2 0 8 5 10 12 6 8 -5
9 -2 5 9 -7 18 13 19 25 2 4 -6 8 -2 8 8 0 10 5 15 10 12 6 -3 10 0 10 7 1 8
6 6 15 -6 13 -17 15 -18 15 -3 0 9 7 17 15 17 8 0 15 6 15 14 0 8 4 18 10 21
6 4 7 -1 4 -12 -4 -13 0 -11 14 6 10 13 24 21 31 17 7 -5 9 -1 4 10 -4 12 -3
15 5 10 7 -4 12 -2 12 4 0 6 4 9 9 6 12 -8 34 20 27 33 -4 5 -2 12 4 16 5 3
10 1 10 -6 0 -18 16 0 39 42 11 20 26 34 37 34 12 0 20 8 22 23 2 13 14 28 27
34 14 6 21 16 18 24 -3 8 -10 11 -16 7 -6 -3 -7 -1 -3 5 4 6 13 9 21 5 9 -3
15 1 15 11 0 9 7 16 15 16 13 0 14 4 4 21 -8 16 -8 20 0 14 14 -8 43 13 35 26
-3 5 -1 9 5 9 6 0 8 7 5 15 -4 8 -1 15 6 15 7 0 10 7 7 14 -4 9 2 18 15 22 20
6 21 7 4 19 -16 12 -16 14 2 19 11 4 23 14 26 22 3 8 2 12 -4 9 -6 -3 -10 -1
-10 4 0 10 22 16 43 12 5 -1 6 3 2 9 -3 6 -11 8 -17 4 -5 -3 -2 8 6 25 9 17
14 31 11 31 -3 0 0 10 7 23 7 12 11 25 10 30 -1 4 2 7 8 7 5 0 7 6 4 14 -3 8
-1 17 5 20 6 4 7 14 4 23 -4 11 -3 14 5 9 7 -4 12 -2 12 3 0 6 -5 11 -12 11
-6 0 -3 7 8 15 14 11 16 15 4 15 -12 1 -11 3 3 14 14 11 15 15 5 19 -9 4 -10
6 -1 6 7 1 10 7 7 15 -3 8 -1 17 5 20 7 4 7 15 1 31 -7 18 -6 26 5 32 7 4 14
13 15 18 1 6 6 9 11 8 5 -2 9 3 9 10 0 8 4 7 10 -3 8 -12 10 -12 11 5 0 11 3
14 6 7 4 -9 8 -10 18 -2 7 6 17 10 21 8 13 -4 74 26 74 36 0 4 6 6 14 3 17 -7
41 17 32 32 -3 5 3 7 14 4 22 -6 53 14 44 28 -3 5 0 9 6 9 6 0 9 4 5 9 -3 5
-1 12 5 16 5 3 10 1 10 -4 0 -6 4 -11 9 -11 4 0 7 11 6 25 -2 14 1 23 6 19 5
-3 6 -11 3 -17 -4 -8 -2 -7 7 1 8 7 14 20 14 30 0 9 6 17 13 17 12 0 15 16 5
25 -4 3 -3 -1 2 -9 6 -10 4 -12 -4 -7 -9 6 -9 11 1 23 8 10 14 11 16 4 2 -6 8
-9 12 -6 5 3 6 13 3 22 -5 11 -3 14 6 8 18 -10 -2 27 -23 44 -9 8 -14 17 -11
21 3 5 -5 6 -17 2 -16 -4 -19 -2 -13 9 7 11 5 11 -10 -1 -11 -9 -16 -10 -11
-2 4 7 2 12 -4 12 -6 0 -8 5 -4 13 6 9 5 9 -8 -1 -12 -10 -18 -9 -28 3 -7 8
-17 12 -24 8 -6 -3 -8 -3 -4 2 12 13 -23 64 -40 57 -10 -3 -13 -1 -8 6 4 7 1
12 -9 12 -9 0 -13 5 -10 10 3 6 1 10 -5 10 -6 0 -8 4 -5 10 3 5 0 7 -8 4 -8
-3 -18 0 -23 7 -4 7 -3 10 4 5 6 -3 14 -2 17 4 4 6 3 9 -2 8 -4 -1 -18 1 -30
6 -19 6 -21 11 -13 26 8 15 7 17 -12 12 -14 -3 -19 -1 -14 6 4 7 2 12 -4 12
-6 0 -8 5 -5 10 3 6 1 10 -4 10 -6 0 -11 9 -11 21 0 11 -4 17 -10 14 -5 -3
-10 2 -10 13 0 10 -10 24 -22 31 -13 6 -15 9 -5 7 9 -3 17 -1 17 4 0 6 -5 10
-11 10 -5 0 -8 4 -5 9 3 5 -1 12 -10 15 -11 4 -14 13 -11 27 3 12 3 18 0 15
-3 -3 -14 4 -25 16 -12 15 -15 24 -7 28 7 5 5 9 -5 13 -9 4 -16 18 -16 32 0
14 -5 25 -11 25 -5 0 -7 4 -4 10 3 6 0 10 -7 10 -9 0 -9 3 2 10 13 9 7 14 -12
11 -7 -1 -13 40 -9 62 1 5 -3 6 -8 3 -5 -3 -12 1 -15 10 -4 10 -2 13 7 8 8 -6
8 -3 -1 9 -8 9 -11 21 -8 26 4 5 2 12 -4 16 -5 3 -10 19 -10 36 0 16 -5 29
-11 29 -5 0 -7 5 -4 10 3 6 0 10 -7 10 -11 0 -10 2 0 9 11 7 11 9 -2 14 -12 5
-13 12 -7 29 6 17 3 30 -11 51 -11 15 -14 27 -8 27 7 0 8 6 1 19 -6 10 -7 21
-4 25 3 3 0 6 -8 7 -8 0 -6 4 6 9 18 8 18 9 2 9 -10 1 -16 5 -13 10 3 5 -1 12
-9 15 -13 4 -14 10 -5 26 9 16 8 22 -5 26 -11 5 -13 10 -5 19 8 9 6 14 -7 19
-15 6 -15 8 -3 16 11 7 12 10 2 10 -7 0 -10 5 -7 10 3 6 1 10 -5 10 -6 0 -8 5
-5 10 3 6 0 10 -7 10 -9 0 -9 3 2 10 10 6 11 10 3 10 -7 0 -15 11 -19 25 -3
14 -10 25 -15 25 -5 0 -6 7 -3 15 4 8 1 15 -6 15 -6 0 -8 5 -5 10 3 6 0 10 -7
10 -9 0 -9 3 2 10 13 9 13 10 0 11 -8 1 -19 1 -23 0 -5 -1 -6 3 -2 9 3 6 12 7
18 3 13 -7 -21 37 -37 48 -5 4 -6 17 -3 29 3 12 3 19 0 16 -8 -8 -33 13 -33
28 0 6 5 4 10 -4 7 -10 10 -11 10 -2 0 7 -6 15 -14 18 -8 3 -17 16 -20 30 -4
13 -11 24 -16 24 -5 0 -6 7 -3 17 5 12 3 14 -7 8 -10 -6 -12 -4 -7 8 4 11 2
14 -8 11 -10 -4 -13 0 -10 14 2 12 -4 27 -13 34 -16 12 -16 11 -2 -7 10 -15
11 -17 0 -8 -7 7 -14 34 -15 61 -1 26 -5 53 -8 59 -4 7 -3 15 3 18 8 5 8 11 0
20 -8 10 -8 15 0 20 8 5 8 11 -1 21 -7 9 -8 14 -1 14 7 0 8 10 2 30 -5 17 -5
30 -2 30 4 0 5 32 2 70 -3 42 -1 75 5 82 7 8 6 9 -2 4 -7 -4 -13 -2 -13 3 0
19 -2 26 -11 43 -6 11 -5 19 1 23 8 5 8 11 1 19 -7 9 -7 16 1 24 8 8 7 13 -4
17 -10 4 -14 14 -11 26 3 11 0 19 -8 19 -7 0 -9 3 -6 6 3 4 2 15 -4 25 -8 15
-6 18 8 13 13 -4 10 1 -7 16 -14 12 -18 18 -10 14 10 -5 8 1 -5 16 -12 14 -14
20 -5 15 12 -7 13 -6 3 7 -7 8 -10 18 -6 21 3 4 2 7 -3 7 -9 0 -13 14 -16 57
-1 7 -5 10 -9 7 -4 -2 -10 0 -14 6 -3 5 -1 10 6 10 8 0 9 3 0 13 -6 8 -8 17
-4 20 3 4 1 7 -5 7 -7 0 -11 3 -11 8 4 22 -2 42 -11 37 -6 -3 -10 5 -10 18 0
14 -7 27 -15 31 -8 3 -12 12 -9 21 3 8 1 15 -5 15 -7 0 -11 8 -9 18 2 10 -2
16 -10 14 -9 -1 -12 6 -10 20 2 14 -2 22 -9 21 -7 -2 -13 4 -13 13 0 9 -5 12
-12 8 -6 -4 -8 -3 -4 4 3 6 2 13 -4 17 -6 4 -8 11 -5 16 3 5 -2 6 -11 2 -12
-4 -15 -3 -10 5 9 15 -18 55 -30 44 -4 -4 -2 2 6 12 8 11 10 17 4 13 -6 -3
-18 3 -27 14 -20 22 -22 33 -5 23 7 -4 8 -3 4 5 -4 6 -12 9 -17 6 -5 -4 -9 1
-9 10 0 9 -4 14 -9 11 -5 -3 -12 1 -15 10 -3 8 -10 12 -16 9 -6 -4 -7 1 -3 11
4 12 3 15 -5 10 -7 -4 -12 -2 -12 5 0 7 -3 9 -7 6 -8 -8 -44 44 -37 54 2 4 -7
10 -21 13 -13 3 -29 15 -35 26 -14 27 -24 25 -56 -7z m91 -33 c3 -6 -1 -7 -9
-4 -18 7 -21 14 -7 14 6 0 13 -4 16 -10z m-1805 -420 c0 -5 -8 -10 -17 -10
-15 0 -16 2 -3 10 19 12 20 12 20 0z m1027 -26 c-3 -3 -12 -4 -19 -1 -8 3 -5
6 6 6 11 1 17 -2 13 -5z m1568 -1652 c-3 -3 -11 0 -18 7 -9 10 -8 11 6 5 10
-3 15 -9 12 -12z m440 -1103 c-4 -5 -12 -9 -18 -8 -9 0 -8 2 1 6 6 2 9 10 6
15 -4 7 -2 8 5 4 6 -4 9 -12 6 -17z m-60 -28 c3 -5 2 -12 -3 -15 -5 -3 -9 1
-9 9 0 17 3 19 12 6z m-4477 -336 c-3 -3 -9 2 -12 12 -6 14 -5 15 5 6 7 -7 10
-15 7 -18z m142 -295 c0 -5 -2 -10 -4 -10 -3 0 -8 5 -11 10 -3 6 -1 10 4 10 6
0 11 -4 11 -10z m34 -49 c-2 -3 -12 3 -22 13 -16 17 -16 18 5 5 12 -7 20 -15
17 -18z m3783 -143 c-3 -8 -6 -5 -6 6 -1 11 2 17 5 13 3 -3 4 -12 1 -19z
m-3573 -76 c3 -5 -1 -9 -9 -9 -8 0 -12 4 -9 9 3 4 7 8 9 8 2 0 6 -4 9 -8z
m3466 -38 c0 -8 -19 -13 -24 -6 -3 5 1 9 9 9 8 0 15 -2 15 -3z m-2770 -316 c0
-6 -6 -5 -15 2 -8 7 -15 14 -15 16 0 2 7 1 15 -2 8 -4 15 -11 15 -16z m1850
-196 c0 -4 -10 -13 -22 -21 -23 -14 -23 -14 -4 8 20 22 26 25 26 13z"/>
<path d="M2599 6823 c-13 -16 -12 -17 4 -4 9 7 17 15 17 17 0 8 -8 3 -21 -13z"/>
<path d="M3266 6578 c3 -5 10 -6 15 -3 13 9 11 12 -6 12 -8 0 -12 -4 -9 -9z"/>
<path d="M3366 6503 c-6 -14 -5 -15 5 -6 7 7 10 15 7 18 -3 3 -9 -2 -12 -12z"/>
<path d="M4449 6473 c-13 -16 -12 -17 4 -4 9 7 17 15 17 17 0 8 -8 3 -21 -13z"/>
<path d="M2140 5310 c-9 -6 -10 -10 -3 -10 6 0 15 5 18 10 8 12 4 12 -15 0z"/>
<path d="M6450 3973 c0 -6 8 -17 18 -24 16 -13 16 -13 2 6 -8 11 -16 22 -17
24 -2 2 -3 0 -3 -6z"/>
<path d="M6577 3889 c7 -7 15 -10 18 -7 3 3 -2 9 -12 12 -14 6 -15 5 -6 -5z"/>
<path d="M1730 3590 c0 -5 5 -10 11 -10 5 0 7 5 4 10 -3 6 -8 10 -11 10 -2 0
-4 -4 -4 -10z"/>
<path d="M2013 3045 c0 -8 4 -12 9 -9 5 3 6 10 3 15 -9 13 -12 11 -12 -6z"/>
<path d="M5841 2787 c-13 -21 -12 -21 5 -5 10 10 16 20 13 22 -3 3 -11 -5 -18
-17z"/>
<path d="M2230 2786 c0 -2 7 -7 16 -10 8 -3 12 -2 9 4 -6 10 -25 14 -25 6z"/>
<path d="M3070 2296 c0 -2 9 -6 20 -9 11 -3 18 -1 14 4 -5 9 -34 13 -34 5z"/>
<path d="M4875 2209 c-4 -6 -5 -12 -2 -15 2 -3 7 2 10 11 7 17 1 20 -8 4z"/>
<path d="M4314 1669 c-19 -22 -19 -22 4 -8 12 8 22 17 22 21 0 12 -6 9 -26
-13z"/>
</g>
</svg>
